<svg xmlns="http://www.w3.org/2000/svg" viewBox="0 0 160 160" role="img" aria-label="Maryse avatar">
  <defs>
    <linearGradient id="bg" x1="0" x2="1" y1="0" y2="1">
      <stop offset="0%" stop-color="#ffffff"/>
      <stop offset="100%" stop-color="#eef4fb"/>
    </linearGradient>
    <linearGradient id="shirt" x1="0" x2="1" y1="0" y2="1">
      <stop offset="0%" stop-color="#ff8c97"/>
      <stop offset="100%" stop-color="#de5969"/>
    </linearGradient>
  </defs>
  <circle cx="80" cy="80" r="76" fill="url(#bg)" stroke="#dfe7f2" stroke-width="4"/>
  <ellipse cx="80" cy="128" rx="34" ry="24" fill="url(#shirt)"/>
  <circle cx="80" cy="72" r="27" fill="#ffd8c0"/>
  <path d="M50 68c0-26 16-42 38-42 18 0 28 9 34 23 6 15 2 35-2 42-3-7-10-14-15-18-9 9-26 14-44 13-5-7-11-8-11-18z" fill="#1f2f53"/>
  <path d="M59 98c6 11 15 17 21 17s15-6 21-17c-6 4-14 7-21 7s-15-3-21-7z" fill="#f3c3aa"/>
  <circle cx="69" cy="73" r="3" fill="#273b63"/>
  <circle cx="91" cy="73" r="3" fill="#273b63"/>
  <path d="M71 87c5 3 13 3 18 0" fill="none" stroke="#c26b74" stroke-linecap="round" stroke-width="3"/>
</svg>
